<?xml version="1.0" encoding="UTF-8" standalone="no"?>
<!-- Created with Inkscape (http://www.inkscape.org/) -->

<svg
   width="300mm"
   height="300mm"
   viewBox="0 0 300 300"
   version="1.1"
   id="svg1"
   inkscape:version="1.4.2 (f4327f4, 2025-05-13)"
   sodipodi:docname="ALL.svg"
   xmlns:inkscape="http://www.inkscape.org/namespaces/inkscape"
   xmlns:sodipodi="http://sodipodi.sourceforge.net/DTD/sodipodi-0.dtd"
   xmlns="http://www.w3.org/2000/svg"
   xmlns:svg="http://www.w3.org/2000/svg">
  <sodipodi:namedview
     id="namedview1"
     pagecolor="#ffffff"
     bordercolor="#000000"
     borderopacity="0.25"
     inkscape:showpageshadow="2"
     inkscape:pageopacity="0.0"
     inkscape:pagecheckerboard="0"
     inkscape:deskcolor="#d1d1d1"
     inkscape:document-units="mm"
     inkscape:zoom="0.32738847"
     inkscape:cx="644.4943"
     inkscape:cy="609.36783"
     inkscape:window-width="1920"
     inkscape:window-height="974"
     inkscape:window-x="-11"
     inkscape:window-y="-11"
     inkscape:window-maximized="1"
     inkscape:current-layer="layer1" />
  <defs
     id="defs1" />
  <g
     inkscape:label="Layer 1"
     inkscape:groupmode="layer"
     id="layer1">
    <path
       style="display:inline;fill:#666666;fill-opacity:1;stroke-width:0.221"
       d="m 37.872935,225.83304 0.10102,-4.4954 82.178035,-16.87478 h 68.93209 l 12.87566,12.87566 v 8.31292 h 4.12521 l -6.50033,4.63417 -2.25011,5.89316 -0.0357,2.71442 2.10725,4.89311 6.51613,1.74599 v 7.2697 l -9.12341,5.19932 -59.87805,11.26844 H 93.83825 l -51.564945,-13.8168 v -7.33228 h -4.53927 l -0.46722,-1.52793 7.67755,-2.32347 2.57602,-4.29337 -0.30306,-7.07143 -2.77806,-3.58622 -5.00051,-1.91939 z"
       id="path7"
       sodipodi:nodetypes="cccccccccccccccccccccccccc" />
    <path
       id="path6"
       style="display:inline;fill:#666666;fill-opacity:1;stroke-width:0.213444"
       d="m 39.713375,225.77387 a 11.289031,11.23852 0 0 0 -11.28872,11.23859 11.289031,11.23852 0 0 0 11.28872,11.23859 11.289031,11.23852 0 0 0 11.28923,-11.23859 11.289031,11.23852 0 0 0 -11.28923,-11.23859 z m 0.10128,6.51588 a 5.8339286,5.2783165 0 0 1 5.83375,5.27823 5.8339286,5.2783165 0 0 1 -5.83375,5.27823 5.8339286,5.2783165 0 0 1 -5.83375,-5.27823 5.8339286,5.2783165 0 0 1 5.83375,-5.27823 z" />
    <path
       id="path6-2"
       style="display:inline;fill:#898989;fill-opacity:1;stroke-width:0.145721"
       d="m 32.082315,236.83573 a 7.6270413,7.7533154 0 0 0 -0.006,0.29404 7.6270413,7.7533154 0 0 0 7.62744,7.75352 7.6270413,7.7533154 0 0 0 7.62692,-7.75352 7.6270413,7.7533154 0 0 0 -0.006,-0.29404 h -2.87062 a 4.79847,4.6721931 0 0 1 0.0119,0.32556 4.79847,4.6721931 0 0 1 -4.79867,4.67206 4.79847,4.6721931 0 0 1 -4.79868,-4.67206 4.79847,4.6721931 0 0 1 0.0119,-0.32556 z" />
    <path
       id="path6-2-0"
       style="display:inline;fill:#595959;fill-opacity:1;stroke-width:0.145721"
       d="m 32.039565,237.44104 a 7.6270413,7.7533154 0 0 1 -0.006,-0.29404 7.6270413,7.7533154 0 0 1 7.62744,-7.75353 7.6270413,7.7533154 0 0 1 7.62693,7.75353 7.6270413,7.7533154 0 0 1 -0.006,0.29404 h -2.87063 a 4.79847,4.6721931 0 0 0 0.0119,-0.32556 4.79847,4.6721931 0 0 0 -4.79867,-4.67207 4.79847,4.6721931 0 0 0 -4.79868,4.67207 4.79847,4.6721931 0 0 0 0.0119,0.32556 z" />
    <path
       id="path6-25"
       style="display:inline;fill:#666666;fill-opacity:1;stroke-width:0.213444"
       d="m 207.61417,225.69551 a 11.289031,11.23852 0 0 0 -11.28872,11.23859 11.289031,11.23852 0 0 0 11.28872,11.23859 11.289031,11.23852 0 0 0 11.28923,-11.23859 11.289031,11.23852 0 0 0 -11.28923,-11.23859 z m 0.10128,6.51588 a 5.8339286,5.2783165 0 0 1 5.83376,5.27823 5.8339286,5.2783165 0 0 1 -5.83376,5.27823 5.8339286,5.2783165 0 0 1 -5.83375,-5.27823 5.8339286,5.2783165 0 0 1 5.83375,-5.27823 z" />
    <path
       id="path6-2-4"
       style="display:inline;fill:#898989;fill-opacity:1;stroke-width:0.145721"
       d="m 199.98311,236.75736 a 7.6270413,7.7533154 0 0 0 -0.006,0.29404 7.6270413,7.7533154 0 0 0 7.62744,7.75353 7.6270413,7.7533154 0 0 0 7.62693,-7.75353 7.6270413,7.7533154 0 0 0 -0.006,-0.29404 h -2.87063 a 4.79847,4.6721931 0 0 1 0.0119,0.32556 4.79847,4.6721931 0 0 1 -4.79867,4.67207 4.79847,4.6721931 0 0 1 -4.79868,-4.67207 4.79847,4.6721931 0 0 1 0.0119,-0.32556 z" />
    <path
       id="path6-2-0-1"
       style="display:inline;fill:#595959;fill-opacity:1;stroke-width:0.145721"
       d="m 199.94036,237.36267 a 7.6270413,7.7533154 0 0 1 -0.006,-0.29404 7.6270413,7.7533154 0 0 1 7.62744,-7.75352 7.6270413,7.7533154 0 0 1 7.62693,7.75352 7.6270413,7.7533154 0 0 1 -0.006,0.29404 h -2.87063 a 4.79847,4.6721931 0 0 0 0.0119,-0.32556 4.79847,4.6721931 0 0 0 -4.79867,-4.67206 4.79847,4.6721931 0 0 0 -4.79867,4.67206 4.79847,4.6721931 0 0 0 0.0119,0.32556 z" />
    <rect
       style="fill:#898989;fill-opacity:1;stroke-width:0.221"
       id="rect7"
       width="48.288177"
       height="2.7144241"
       x="113.29451"
       y="204.49858" />
    <rect
       style="fill:#595959;fill-opacity:1;stroke-width:0.315426"
       id="rect8"
       width="47.732143"
       height="3.0868149"
       x="99.8965"
       y="266.30261" />
    <path
       id="path1"
       style="display:inline;fill:#b84a00;stroke-width:0.299829"
       d="m 43.165875,247.9291 v 15.35825 l 0.0243,0.0253 a 7.9301023,7.6270404 0 0 0 -0.0165,0.49558 7.9301023,7.6270404 0 0 0 7.88582,7.62692 h 0.0444 a 7.9301023,7.6270404 0 0 0 0.0615,-5.1e-4 l 58.432615,-0.16485 -8.00934,-13.68083 -0.0977,-0.0238 a 25.103571,25.103573 0 0 1 -14.95878,4.94336 25.103571,25.103573 0 0 1 -22.55212,-14.07717 l -2.06344,-0.5023 z"
       class="amber-dim" />
    <path
       id="path1-83"
       style="display:inline;fill:#ff6a00;fill-opacity:1;stroke-width:0.299829"
       d="m 58.93938,247.93846 a 28.651575,26.822872 0 0 0 27.2588,18.56116 28.651575,26.822872 0 0 0 17.37517,-5.49477 l -1.9942,-3.40651 -0.0977,-0.0238 a 25.103571,25.103573 0 0 1 -14.9593,4.94337 25.103571,25.103573 0 0 1 -22.55211,-14.07718 l -2.06344,-0.5023 z"
       class="amber" />
    <path
       id="path1-8"
       style="display:inline;fill:#b84a00;stroke-width:0.11222"
       d="m 120.31104,202.42852 a 2.9951594,2.8288338 0 0 0 -0.25218,0.01 H 50.972115 a 35.357143,31.922451 0 0 1 -13.1439,19.06085 H 70.08877 a 22.740105,22.790615 0 0 1 16.57316,-7.18509 22.740105,22.790615 0 0 1 20.00549,11.95534 l 15.89723,-19.1487 0.002,-0.002 a 2.9951594,2.8288338 0 0 0 0.19792,-0.23926 l 0.0574,-0.0687 -0.004,-0.006 a 2.9951594,2.8288338 0 0 0 0.48782,-1.54719 2.9951594,2.8288338 0 0 0 -2.99516,-2.82877 z"
       class="amber-dim" />
    <path
       id="path1-8-2"
       style="display:inline;fill:#ff6a00;fill-opacity:1;stroke-width:0.11222"
       d="m 50.801065,202.52878 a 35.357143,31.922451 0 0 1 -13.1439,19.06085 h 4.24212 a 28.508854,27.648958 0 0 0 11.5595,-19.06085 z"
       class="amber" />
    <path
       id="path1-8-4"
       style="display:inline;fill:#ff6a00;fill-opacity:1;stroke-width:0.11222"
       d="m 120.31362,202.39907 5.2e-4,5.2e-4 a 2.9951594,2.8288338 0 0 0 -0.25218,0.009 H 50.975215 a 35.357143,31.922451 0 0 1 -1.0666,3.66592 h 73.262715 a 2.9951594,2.8288338 0 0 0 0.13746,-0.84698 2.9951594,2.8288338 0 0 0 -2.99517,-2.82876 z"
       class="amber" />
    <path
       id="path1-8-7"
       style="display:inline;fill:#b84a00;stroke-width:0.11222"
       d="m 156.08301,202.46883 a 2.9951594,2.8288338 0 0 0 -0.0858,0.001 h -0.0398 l -0.001,0.002 a 2.9951594,2.8288338 0 0 0 -2.86856,2.82618 2.9951594,2.8288338 0 0 0 0.40566,1.41439 l -5.2e-4,0.001 0.004,0.004 a 2.9951594,2.8288338 0 0 0 0.95136,0.95136 l 9.17929,9.17928 h 0.0915 a 16.668367,16.718878 0 0 1 13.50357,-6.9174 16.668367,16.718878 0 0 1 13.50357,6.9174 h 0.0889 l 9.08524,9.08524 h 3.97185 0.0977 v -15.56026 a 7.6025372,7.3647795 0 0 0 0.0202,-0.5333 7.6025372,7.3647795 0 0 0 -7.52822,-7.3644 l -0.005,-0.005 h -40.2885 a 2.9951594,2.8288338 0 0 0 -0.0853,-10e-4 z"
       class="amber-dim" />
    <path
       id="path1-8-7-2"
       style="display:inline;fill:#ff6a00;fill-opacity:1;stroke-width:0.11222"
       d="m 154.87999,202.47503 a 2.9951594,2.8288338 0 0 0 -1.77096,2.58176 2.9951594,2.8288338 0 0 0 0.27131,1.1684 h 49.78714 a 7.6025372,7.3647795 0 0 0 -4.82606,-3.75016 z"
       class="amber" />
    <path
       id="path4"
       style="display:inline;fill:#b84a00;stroke-width:0.221"
       d="m 169.10444,239.03353 -32.14946,32.14894 59.52505,0.20206 a 35.357143,31.922451 0 0 1 12.78268,-18.95493 h -10.46396 l -13.20953,-13.20952 a 14.496429,14.698469 0 0 1 -8.10906,2.51509 14.496429,14.698469 0 0 1 -8.37572,-2.70164 z"
       class="amber-dim" />
    <path
       id="path4-5"
       style="display:inline;fill:#ff6a00;fill-opacity:1;stroke-width:0.221"
       d="m 169.08739,239.06092 -32.12259,32.12259 3.58686,0.0124 30.80846,-30.80847 a 14.496429,14.698469 0 0 1 -2.27273,-1.32652 z"
       class="amber" />
    <path
       id="path4-9"
       style="display:inline;fill:#ff6a00;fill-opacity:1;stroke-width:0.221"
       d="m 169.04708,239.09192 -3.07216,3.07216 a 18.108068,18.250931 0 0 0 11.28716,3.9796 18.108068,18.250931 0 0 0 11.21379,-3.92121 l -2.94401,-2.944 a 14.496429,14.698469 0 0 1 -8.10906,2.51509 14.496429,14.698469 0 0 1 -8.37572,-2.70164 z"
       class="amber" />
    <rect
       style="display:inline;fill:#ff6a00;fill-opacity:1;stroke-width:0.182937"
       id="rect14"
       width="18.572376"
       height="2.545171"
       x="43.353432"
       y="247.93829"
       class="amber" />
    <circle
       style="display:inline;fill:#e3e3e3;fill-opacity:1;stroke-width:0.248041"
       id="path8"
       cx="86.814346"
       cy="236.98712"
       r="22.628571" />
    <ellipse
       style="display:inline;fill:#e3e3e3;fill-opacity:1;stroke-width:0.153495"
       id="path8-2"
       cx="177.28494"
       cy="227.79224"
       rx="13.985272"
       ry="14.020989" />
    <ellipse
       style="display:inline;fill:#666666;fill-opacity:1;stroke-width:0.253721"
       id="path9"
       cx="177.49115"
       cy="227.93268"
       rx="9.5351496"
       ry="9.5726614" />
    <ellipse
       style="display:inline;fill:#404040;fill-opacity:1;stroke-width:0.159109"
       id="path9-9"
       cx="177.29678"
       cy="228.81378"
       rx="5.9771986"
       ry="6.0055175" />
    <ellipse
       style="display:inline;fill:#666666;fill-opacity:1;stroke-width:0.461773"
       id="path9-7"
       cx="86.849838"
       cy="237.06558"
       rx="17.464201"
       ry="17.31267" />
    <path
       id="path9-7-3"
       style="display:inline;fill:#999999;fill-opacity:1;stroke-width:0.461773"
       d="m 87.25466,236.68587 -12.70879,12.70878 a 17.464201,17.31267 0 0 0 12.37496,5.09633 17.464201,17.31267 0 0 0 12.55117,-5.27462 L 87.68202,237.42639 Z" />
    <path
       id="path9-7-3-5"
       style="display:inline;fill:#404040;fill-opacity:1;stroke-width:0.461773"
       d="M 87.21006,237.58959 74.50126,224.8808 a 17.464201,17.31267 0 0 1 12.37497,-5.09633 17.464201,17.31267 0 0 1 12.55116,5.27462 l -11.78997,11.78997 z" />
    <path
       id="path15"
       style="display:inline;fill:#18161e;fill-opacity:1;stroke-width:0.283388"
       d="m 75.41093,224.91087 a 1,1 0 0 0 -0.99994,0.99994 1,1 0 0 0 0.008,0.12299 v 22.0617 a 1,1 0 0 0 -0.01,0.13901 1,1 0 0 0 0.99994,0.99994 1,1 0 0 0 0.003,0 l 0.009,0.009 h 22.83788 a 1,1 0 0 0 0.0532,0.002 1,1 0 0 0 0.99993,-0.99994 1,1 0 0 0 -0.006,-0.11162 v -22.13471 a 1,1 0 0 0 0.004,-0.0868 1,1 0 0 0 -0.99994,-0.99994 1,1 0 0 0 -0.0739,0.003 l -0.002,-10e-4 H 75.48546 a 1,1 0 0 0 -0.0749,-0.003 z" />
    <path
       id="path2-2-1-1-7"
       style="display:inline;fill:#b84a00;fill-opacity:1;stroke-width:0.0779947;stroke-dasharray:none"
       class="amber-dim"
       d="m 175.90806,221.88862 a 6,6 0 0 0 -1.44436,0.56793 1.5,1.5 0 0 1 0.33693,0.94722 1.5,1.5 0 0 1 -1.49965,1.49966 1.5,1.5 0 0 1 -1.01027,-0.39068 6,6 0 0 0 -0.64441,1.39578 1.5,1.5 0 0 1 1.40147,1.49707 1.5,1.5 0 0 1 -1.49965,1.49965 1.5,1.5 0 0 1 -0.0563,-0.001 6,6 0 0 0 0.62528,1.6986 1.5,1.5 0 0 1 1.08469,-0.46405 1.5,1.5 0 0 1 1.49965,1.50016 1.5,1.5 0 0 1 -0.52865,1.14309 6,6 0 0 0 1.69861,0.73277 1.5,1.5 0 0 1 -0.003,-0.0899 1.5,1.5 0 0 1 1.50017,-1.50017 1.5,1.5 0 0 1 1.49965,1.50017 1.5,1.5 0 0 1 -0.005,0.0816 6,6 0 0 0 1.66088,-0.69918 1.5,1.5 0 0 1 -0.35605,-0.96997 1.5,1.5 0 0 1 1.50017,-1.50017 1.5,1.5 0 0 1 0.92294,0.31781 6,6 0 0 0 0.58601,-1.45365 1.5,1.5 0 0 1 -0.0207,0.002 1.5,1.5 0 0 1 -1.50017,-1.49965 1.5,1.5 0 0 1 1.50017,-1.50017 1.5,1.5 0 0 1 0.0227,0 6,6 0 0 0 -0.59532,-1.46761 1.5,1.5 0 0 1 -0.98185,0.36639 1.5,1.5 0 0 1 -1.50016,-1.49966 1.5,1.5 0 0 1 0.39739,-1.01699 6,6 0 0 0 -1.59991,-0.68213 1.5,1.5 0 0 1 0.002,0.0786 1.5,1.5 0 0 1 -1.49965,1.49965 1.5,1.5 0 0 1 -1.50017,-1.49965 1.5,1.5 0 0 1 0.006,-0.093 z" />
    <path
       id="path2-2-1-1-7-7"
       style="display:inline;fill:#ff6a00;fill-opacity:1;stroke-width:0.0779947;stroke-dasharray:none"
       class="amber"
       d="m 181.81144,228.28549 a 1.5,1.5 0 0 0 -0.15916,0.66508 1.5,1.5 0 0 0 1.08159,1.44073 6,6 0 0 0 0.46353,-1.22473 1.5,1.5 0 0 1 -0.0212,0.002 1.5,1.5 0 0 1 -1.36477,-0.88315 z" />
    <path
       id="path2-2-1-1-7-7-53"
       style="display:inline;fill:#ff6a00;fill-opacity:1;stroke-width:0.0779947;stroke-dasharray:none"
       class="amber"
       d="m 180.26814,224.23549 a 1.5,1.5 0 0 0 -0.18035,0.70848 1.5,1.5 0 0 0 1.49965,1.50017 1.5,1.5 0 0 0 1.39009,-0.93586 6,6 0 0 0 -0.36483,-0.76068 1.5,1.5 0 0 1 -0.98186,0.36639 1.5,1.5 0 0 1 -1.3627,-0.8785 z" />
    <path
       id="path2-2-1-1-7-7-4"
       style="display:inline;fill:#ff6a00;fill-opacity:1;stroke-width:0.0779947;stroke-dasharray:none"
       class="amber"
       d="m 178.77081,222.58558 a 1.5,1.5 0 0 1 -1.35393,0.86248 1.5,1.5 0 0 1 -1.34255,-0.83716 1.5,1.5 0 0 0 -0.14521,0.63717 1.5,1.5 0 0 0 1.49965,1.50017 1.5,1.5 0 0 0 1.50016,-1.50017 1.5,1.5 0 0 0 -0.15812,-0.66249 z" />
    <path
       id="path2-2-1-1-7-7-6"
       style="display:inline;fill:#ff6a00;fill-opacity:1;stroke-width:0.0779947;stroke-dasharray:none"
       class="amber"
       d="m 174.65543,224.0134 a 1.5,1.5 0 0 1 -1.34927,0.85215 1.5,1.5 0 0 1 -1.01027,-0.39068 6,6 0 0 0 -0.38499,0.71727 1.5,1.5 0 0 0 1.42265,1.02526 1.5,1.5 0 0 0 1.50017,-1.50016 1.5,1.5 0 0 0 -0.17829,-0.70384 z" />
    <path
       id="path2-2-1-1-7-7-5"
       style="display:inline;fill:#ff6a00;fill-opacity:1;stroke-width:0.0779947;stroke-dasharray:none"
       class="amber"
       d="m 172.87595,228.13086 a 1.5,1.5 0 0 1 -1.33119,0.81545 1.5,1.5 0 0 1 -0.0563,-0.001 6,6 0 0 0 0.41083,1.27072 1.5,1.5 0 0 0 1.12035,-1.45107 1.5,1.5 0 0 0 -0.14366,-0.63407 z" />
    <rect
       style="fill:#454545;fill-opacity:1;stroke-width:0.275116;stroke-dasharray:none"
       id="rect5-4-0"
       width="14.150867"
       height="13.580558"
       x="122.02525"
       y="213.24237" />
    <path
       id="rect5-2-4-7"
       style="fill:#b84a00;fill-opacity:1;stroke-width:0.285162;stroke-dasharray:none"
       d="m 136.60464,211.57647 a 7.0626084,1.3298439 0 0 1 -7.05761,1.27856 7.0626084,1.3298439 0 0 1 -7.05046,-1.25239 v 14.56372 h 0.007 a 7.0626084,1.3298439 0 0 1 -0.002,-0.0359 7.0626084,1.3298439 0 0 1 7.06276,-1.32954 7.0626084,1.3298439 0 0 1 7.06278,1.32954 7.0626084,1.3298439 0 0 1 -0.002,0.0359 h 0.0233 v -14.58989 z"
       class="amber-dim" />
    <path
       id="rect5-2-49-7"
       style="fill:#ff6a00;fill-opacity:1;stroke-width:0.285607;stroke-dasharray:none"
       d="m 136.58393,211.5816 a 7.0626084,1.3298439 0 0 1 -7.05759,1.27858 7.0626084,1.3298439 0 0 1 -7.05049,-1.2524 v 3.66005 a 7.0626084,1.3298439 0 0 0 7.0479,1.24551 7.0626084,1.3298439 0 0 0 7.05759,-1.27857 h 0.0433 v 10.93675 h 0.002 V 211.5816 Z"
       class="amber" />
    <rect
       style="fill:#454545;fill-opacity:1;stroke-width:0.275116;stroke-dasharray:none"
       id="rect5-4-0-3"
       width="14.150867"
       height="13.580558"
       x="141.46214"
       y="213.3578" />
    <path
       id="rect5-2-4-7-0"
       style="fill:#b84a00;fill-opacity:1;stroke-width:0.285162;stroke-dasharray:none"
       d="m 156.04154,211.69191 a 7.0626084,1.3298439 0 0 1 -7.05761,1.27856 7.0626084,1.3298439 0 0 1 -7.05046,-1.25239 v 14.56372 h 0.007 a 7.0626084,1.3298439 0 0 1 -0.002,-0.0359 7.0626084,1.3298439 0 0 1 7.06276,-1.32954 7.0626084,1.3298439 0 0 1 7.06278,1.32954 7.0626084,1.3298439 0 0 1 -0.002,0.0359 h 0.0233 v -14.58989 z"
       class="amber-dim" />
    <path
       id="rect5-2-49-7-1"
       style="fill:#ff6a00;fill-opacity:1;stroke-width:0.285607;stroke-dasharray:none"
       d="m 156.02083,211.69704 a 7.0626084,1.3298439 0 0 1 -7.05759,1.27858 7.0626084,1.3298439 0 0 1 -7.05049,-1.2524 v 3.66005 a 7.0626084,1.3298439 0 0 0 7.0479,1.24551 7.0626084,1.3298439 0 0 0 7.05759,-1.27857 h 0.0433 v 10.93675 h 0.002 v -14.58992 z"
       class="amber" />
    <rect
       style="fill:#454545;fill-opacity:1;stroke-width:0.275116;stroke-dasharray:none"
       id="rect5-4-0-3-3"
       width="14.150867"
       height="13.580558"
       x="119.75029"
       y="231.39975" />
    <path
       id="rect5-2-4-7-0-1"
       style="fill:#b84a00;fill-opacity:1;stroke-width:0.285162;stroke-dasharray:none"
       d="m 134.32969,229.73383 a 7.0626084,1.3298439 0 0 1 -7.05761,1.27857 7.0626084,1.3298439 0 0 1 -7.05046,-1.2524 v 14.56372 h 0.007 a 7.0626084,1.3298439 0 0 1 -0.002,-0.0359 7.0626084,1.3298439 0 0 1 7.06276,-1.32954 7.0626084,1.3298439 0 0 1 7.06278,1.32954 7.0626084,1.3298439 0 0 1 -0.002,0.0359 h 0.0233 v -14.58989 z"
       class="amber-dim" />
    <path
       id="rect5-2-49-7-1-4"
       style="fill:#ff6a00;fill-opacity:1;stroke-width:0.285607;stroke-dasharray:none"
       d="m 134.30898,229.73896 a 7.0626084,1.3298439 0 0 1 -7.05759,1.27858 7.0626084,1.3298439 0 0 1 -7.05049,-1.2524 v 3.66005 a 7.0626084,1.3298439 0 0 0 7.0479,1.24551 7.0626084,1.3298439 0 0 0 7.05759,-1.27857 h 0.0433 v 10.93675 h 0.002 v -14.58992 z"
       class="amber" />
    <rect
       style="fill:#454545;fill-opacity:1;stroke-width:0.275116;stroke-dasharray:none"
       id="rect5-4-0-3-3-9"
       width="14.150867"
       height="13.580558"
       x="139.1942"
       y="231.45288" />
    <path
       id="rect5-2-4-7-0-1-3"
       style="fill:#b84a00;fill-opacity:1;stroke-width:0.285162;stroke-dasharray:none"
       d="m 153.7736,229.78698 a 7.0626084,1.3298439 0 0 1 -7.05761,1.27856 7.0626084,1.3298439 0 0 1 -7.05046,-1.2524 v 14.56372 h 0.007 a 7.0626084,1.3298439 0 0 1 -0.002,-0.0359 7.0626084,1.3298439 0 0 1 7.06276,-1.32954 7.0626084,1.3298439 0 0 1 7.06278,1.32954 7.0626084,1.3298439 0 0 1 -0.002,0.0359 h 0.0233 v -14.58988 z"
       class="amber-dim" />
    <path
       id="rect5-2-49-7-1-4-2"
       style="fill:#ff6a00;fill-opacity:1;stroke-width:0.285607;stroke-dasharray:none"
       d="m 153.75289,229.79211 a 7.0626084,1.3298439 0 0 1 -7.05759,1.27858 7.0626084,1.3298439 0 0 1 -7.05049,-1.2524 v 3.66005 a 7.0626084,1.3298439 0 0 0 7.0479,1.2455 7.0626084,1.3298439 0 0 0 7.05759,-1.27856 h 0.0433 v 10.93674 h 0.002 v -14.58991 z"
       class="amber" />
    <rect
       style="fill:#454545;fill-opacity:1;stroke-width:0.275116;stroke-dasharray:none"
       id="rect5-4-0-3-3-9-4"
       width="14.150867"
       height="13.580558"
       x="118.08159"
       y="250.58923" />
    <path
       id="rect5-2-4-7-0-1-3-3"
       style="fill:#b84a00;fill-opacity:1;stroke-width:0.285162;stroke-dasharray:none"
       d="m 132.66097,248.92333 a 7.0626084,1.3298439 0 0 1 -7.05761,1.27856 7.0626084,1.3298439 0 0 1 -7.05045,-1.2524 v 14.56373 h 0.007 a 7.0626084,1.3298439 0 0 1 -0.002,-0.0359 7.0626084,1.3298439 0 0 1 7.06275,-1.32955 7.0626084,1.3298439 0 0 1 7.06278,1.32955 7.0626084,1.3298439 0 0 1 -0.002,0.0359 h 0.0233 v -14.58989 z"
       class="amber-dim" />
    <path
       id="rect5-2-49-7-1-4-2-5"
       style="fill:#ff6a00;fill-opacity:1;stroke-width:0.285607;stroke-dasharray:none"
       d="m 132.64026,248.92846 a 7.0626084,1.3298439 0 0 1 -7.05759,1.27858 7.0626084,1.3298439 0 0 1 -7.05049,-1.2524 v 3.66005 a 7.0626084,1.3298439 0 0 0 7.0479,1.2455 7.0626084,1.3298439 0 0 0 7.05759,-1.27856 h 0.0433 v 10.93675 h 0.002 v -14.58992 z"
       class="amber" />
    <path
       id="path10"
       style="fill:#e3e3e3;fill-opacity:1;stroke-width:0.221864"
       d="m 37.875765,221.47439 v 4.31911 h 6.83162 L 58.1169,239.46192 h 2.29443 v -4.70824 L 47.237465,221.52503 Z" />
    <path
       id="path10-8"
       style="fill:#e3e3e3;fill-opacity:1;stroke-width:0.221"
       d="m 191.28345,238.05374 a 16.674366,16.726671 0 0 1 -3.4556,3.46387 l 10.89391,10.89391 9.34465,0.0501 v -4.29328 h -6.81871 z" />
    <rect
       style="fill:#c1c1c1;fill-opacity:1;stroke-width:0.256714"
       id="rect12"
       width="2.5255101"
       height="4.305995"
       x="205.58908"
       y="248.16251" />
    <rect
       style="fill:#c1c1c1;fill-opacity:1;stroke-width:0.260601"
       id="rect12-3"
       width="2.5522971"
       height="4.390821"
       x="37.87899"
       y="221.47504" />
    <path
       id="rect8-6"
       style="fill:#00e5ff;fill-opacity:1;stroke-width:0.0827738;stroke-dasharray:none"
       d="m 77.7504,227.67982 -0.66741,0.59019 3.59263,3.14116 -3.69231,3.26449 0.79137,0.69188 4.35939,-3.85467 z"
       class="cyan" />
    <rect
       style="fill:#00e5ff;fill-opacity:1;stroke-width:0.166185;stroke-dasharray:none"
       id="rect9"
       width="6.0192709"
       height="1.0616573"
       x="81.496613"
       y="236.23123"
       class="cyan" />
    <path
       id="rect1"
       style="fill:#666666;fill-opacity:1;stroke-width:0.264179"
       d="m 83.60032,133.2793 v 51.40669 l 2.29806,3.41012 H 251.83967 V 133.2793 Z" />
    <rect
       style="fill:#454545;fill-opacity:1;stroke-width:0.438163;stroke-dasharray:none"
       id="rect4-9"
       width="8.2869339"
       height="56.628414"
       x="129.75122"
       y="50.846016"
       transform="matrix(-0.01271493,0.99991916,0.99999996,-2.9643777e-4,0,0)" />
    <rect
       style="fill:#363636;fill-opacity:1;stroke-width:0.227793;stroke-dasharray:none"
       id="rect4-9-7"
       width="11.454863"
       height="11.072577"
       x="131.44899"
       y="92.92366"
       transform="matrix(-0.00179858,0.99999838,0.9999978,-0.0020958,0,0)" />
    <ellipse
       style="fill:#595959;fill-opacity:1;stroke-width:0.297304;stroke-dasharray:none"
       id="path4-0"
       cx="-16.886747"
       cy="141.61501"
       rx="4.2587671"
       ry="4.1848712"
       transform="matrix(-0.97266108,0.23222924,0.23222924,0.97266108,0,0)" />
    <path
       id="path4-0-8"
       style="fill:#454545;fill-opacity:1;stroke-width:0.297304;stroke-dasharray:none"
       d="m 51.786055,131.73415 a 4.1848712,4.2587671 76.571648 0 1 5.11405,3.08137 4.1848712,4.2587671 76.571648 0 1 -0.53882,3.18834 l -7.30353,-0.10193 a 4.1848712,4.2587671 76.571648 0 1 -0.4421,-1.10844 4.1848712,4.2587671 76.571648 0 1 3.1704,-5.05934 z" />
    <rect
       style="fill:#595959;fill-opacity:1;stroke-width:0.153862;stroke-dasharray:none"
       id="rect7-5"
       width="48.412922"
       height="1.9843682"
       x="-97.676903"
       y="129.31415"
       transform="matrix(-0.99998117,-0.00613751,-0.00144195,0.99999896,0,0)" />
    <rect
       style="fill:#898989;fill-opacity:1;stroke-width:0.296103"
       id="rect7-8"
       width="86.68486"
       height="2.7144241"
       x="105.59892"
       y="133.14908" />
    <rect
       style="fill:#595959;fill-opacity:1;stroke-width:0.588031"
       id="rect8-5"
       width="165.88844"
       height="3.0868149"
       x="85.896599"
       y="185.04486" />
    <ellipse
       style="fill:#666666;fill-opacity:1;stroke-width:0.287132;stroke-dasharray:none"
       id="path23"
       cx="153.56908"
       cy="160.50038"
       rx="17.017191"
       ry="17.230989" />
    <path
       id="path23-2"
       style="fill:#999999;fill-opacity:1;stroke-width:0.287132;stroke-dasharray:none"
       d="m 138.19641,168.59258 a 17.017191,17.230989 0 0 0 15.18564,9.45472 17.017191,17.230989 0 0 0 15.18563,-9.45472 z" />
    <path
       id="path23-2-2"
       style="fill:#404040;fill-opacity:1;stroke-width:0.287132;stroke-dasharray:none"
       d="m 153.74383,143.4513 a 17.017191,17.230989 0 0 0 -15.4001,9.89965 h 30.80019 a 17.017191,17.230989 0 0 0 -15.40009,-9.89965 z" />
    <path
       id="path2"
       style="display:inline;fill:#b84a00;fill-opacity:1;stroke-width:0.268563;stroke-dasharray:none"
       class="amber-dim "
       d="m 82.82955,128.17106 a 36.2952,5.098166 0 0 0 -26.086265,1.55339 h -0.16174 v 0.0982 h -0.26769 v 33.51217 h 0.003 a 10.666015,10.252604 0 0 0 0,0.0269 10.666015,10.252604 0 0 0 10.666015,10.2526 10.666015,10.252604 0 0 0 10.66601,-10.2526 10.666015,10.252604 0 0 0 -5.1e-4,-0.10077 v -24.94578 a 36.2952,5.098166 0 0 0 0.0336,5.2e-4 v -0.0894 h 10.51718 v -9.99888 a 36.2952,5.098166 0 0 0 -5.36969,-0.0563 z m -15.76235,9.94203 a 3.96875,3.7041667 0 0 1 3.96772,3.6189 h 0.0326 v 20.90208 h -0.0822 a 3.96875,3.7041667 0 0 1 -3.95273,3.37344 3.96875,3.7041667 0 0 1 -3.95273,-3.37344 h -0.016 v -20.90208 h 0.0357 a 3.96875,3.7041667 0 0 1 3.96771,-3.6189 z" />
    <path
       id="path2-6"
       style="display:inline;fill:#ff6a00;fill-opacity:1;stroke-width:0.268563;stroke-dasharray:none"
       class="amber-dim  amber"
       d="m 82.8244,128.25341 a 36.2952,5.098166 0 0 0 -26.086265,1.5534 h -0.16174 v 0.0982 h -0.26769 v 4.77438 h 0.24805 v -0.0982 h 0.16175 a 36.2952,5.098166 0 0 1 26.086255,-1.55339 36.2952,5.098166 0 0 1 5.04052,0.0496 h 0.34881 v -4.76767 a 36.2952,5.098166 0 0 0 -5.36969,-0.0563 z m -26.515695,6.42597 h -0.0196 v 0.0109 h 0.0196 z" />
    <path
       id="path3"
       style="display:inline;fill:#b84a00;fill-opacity:1;stroke-width:0.275853;stroke-dasharray:none"
       d="m 99.78331,126.45078 a 17.399246,5.238482 0 0 0 -12.24266,1.51618 12.766146,9.558073 0 0 0 12.00495,6.3066 12.766146,9.558073 0 0 0 12.0618,-6.42752 17.399246,5.238482 0 0 0 -11.82409,-1.39526 z"
       class="amber-dim" />
    <rect
       style="display:inline;fill:#b84a00;fill-opacity:1;stroke-width:0.266367;stroke-dasharray:none"
       id="rect13"
       width="29.466467"
       height="45.649632"
       x="83.225929"
       y="138.98557"
       class="amber-dim" />
    <path
       id="rect15"
       style="display:inline;fill:#b84a00;fill-opacity:1;stroke-width:0.264999;stroke-dasharray:none"
       d="m 178.12685,127.85741 v 25.53229 h 74.87709 v -25.53229 z"
       class="amber-dim" />
    <rect
       style="display:inline;fill:#b84a00;fill-opacity:1;stroke-width:0.264999;stroke-dasharray:none"
       id="rect16"
       width="17.264063"
       height="31.022396"
       x="235.73988"
       y="152.5298"
       class="amber-dim" />
    <rect
       style="display:inline;fill:#b84a00;fill-opacity:1;stroke-width:0.264999;stroke-dasharray:none"
       id="rect17"
       width="6.8791666"
       height="2.4473958"
       x="246.19093"
       y="182.69231"
       class="amber-dim" />
    <path
       style="display:inline;fill:#b84a00;fill-opacity:1;stroke-width:0.264999;stroke-dasharray:none"
       d="m 252.93874,185.07954 v 2.0112 l -2.6777,2.67771 h -3.51961 v -2.93495 l 4.0233,-2.32285 z"
       id="path17"
       class="amber-dim" />
    <path
       id="path20"
       style="display:inline;fill:#b84a00;fill-opacity:1;stroke-width:0.264999;stroke-dasharray:none"
       d="m 117.53728,127.85741 c 0,0 -4.29948,0.46302 -6.35001,3.37344 -0.2114,0.30006 -0.39785,0.62631 -0.56224,0.97048 v 6.76858 h -1.20509 c 0.003,0.35506 0.0145,0.56224 0.0145,0.56224 l -26.22683,39.72058 v 4.49791 c 0,0 -0.33072,5.1263 5.12631,5.1263 h 27.74818 l 13.14648,-13.14648 0.0305,-0.11472 h 5.2e-4 a 3.4377542,3.7183871 0 0 0 1.94872,-3.35174 3.4377542,3.7183871 0 0 0 -0.52297,-1.97145 l 0.0475,-0.17673 -1.09089,-3.10007 -10.58333,-0.19844 v -15.67656 h 16.64601 a 20.405989,20.703646 0 0 1 18.20202,-11.34505 20.405989,20.703646 0 0 1 19.43809,14.40326 h 2.66547 v -26.34155 z"
       class="amber-dim" />
    <path
       id="path20-1"
       style="display:inline;fill:#ff6a00;fill-opacity:1;stroke-width:0.264999;stroke-dasharray:none"
       d="m 117.41117,127.80849 c 0,0 -4.29948,0.46303 -6.35,3.37344 -0.21141,0.30006 -0.39786,0.62632 -0.56224,0.97048 v 3.65249 h 0.14572 c 0.13578,-0.26167 0.28539,-0.51138 0.45011,-0.74517 2.05052,-2.91042 6.35,-3.37344 6.35,-3.37344 h 58.43932 v -3.8778 z"
       class="amber" />
    <path
       id="path18"
       style="display:inline;fill:#b84a00;fill-opacity:1;stroke-width:0.264999;stroke-dasharray:none"
       d="m 174.52966,163.59735 -0.75138,0.75138 a 20.405989,20.703646 0 0 1 -10.27999,14.53606 l -0.19844,9.72602 h 24.41505 v -17.39945 l -5.2e-4,-0.001 a 4.1671877,4.5855727 0 0 0 0.0202,-0.45217 4.1671877,4.5855727 0 0 0 -2.7771,-4.32325 h -5.1e-4 l -0.0295,-0.0517 z"
       class="amber-dim" />
    <path
       id="path18-2"
       style="display:inline;fill:#ff6a00;fill-opacity:1;stroke-width:0.264999;stroke-dasharray:none"
       d="m 174.70105,163.56859 -0.75137,0.75138 a 20.405989,20.703646 0 0 1 -10.27999,14.53606 l -0.19844,9.72602 h 0.0708 l 0.14987,-7.34839 a 20.405989,20.703646 0 0 0 10.27999,-14.53606 l 0.75137,-0.75138 10.39782,2.78588 0.0294,0.0517 h 5.2e-4 a 4.1671877,4.5855727 0 0 1 2.73524,3.67316 v -1.27434 l -5.2e-4,-10e-4 a 4.1671877,4.5855727 0 0 0 0.0202,-0.45217 4.1671877,4.5855727 0 0 0 -2.77709,-4.32325 h -5.2e-4 l -0.0294,-0.0517 z"
       class="amber" />
    <path
       id="path19-1-6"
       style="display:inline;fill:#e3e3e3;fill-opacity:1;stroke-width:0.276;stroke-dasharray:none"
       d="m 153.68648,140.19516 a 20.405989,20.703646 0 0 0 -20.40598,20.70365 20.405989,20.703646 0 0 0 0.72088,5.45289 20.405989,20.703646 0 0 0 5.2e-4,0.003 l 0.0222,0.1819 c 0,0 2.46548,7.40006 0.34881,9.94668 -2.11667,2.54661 -6.51691,6.90397 -6.51691,6.90397 l -0.0661,5.19244 h 4.20026 v -3.24114 l 3.6711,-3.6711 c 0,0 3.10374,-4.12762 10.19214,-1.65106 0.11831,0.0413 0.23759,0.0847 0.35812,0.12971 0.0618,0.0231 0.10446,0.0289 0.16536,0.0512 a 20.405989,20.703646 0 0 0 7.30963,1.4056 20.405989,20.703646 0 0 0 20.40599,-20.70365 20.405989,20.703646 0 0 0 -20.40599,-20.70364 z m -0.0599,3.25097 a 17.038393,17.055418 0 0 1 17.03824,17.05529 17.038393,17.055418 0 0 1 -17.03824,17.05529 17.038393,17.055418 0 0 1 -17.03824,-17.05529 17.038393,17.055418 0 0 1 17.03824,-17.05529 z" />
    <path
       id="path21"
       style="display:inline;fill:#e3e3e3;fill-opacity:1;stroke-width:0.274665;stroke-dasharray:none"
       d="m 212.45654,156.36627 a 10.252604,10.616405 0 0 0 -10.2526,10.61227 h -0.0129 c 0,0 -0.39762,5.37891 4.13928,8.60619 4.5369,3.22728 4.02249,4.98109 4.02249,4.98109 v 8.09202 h 1.54461 v 0.002 h 2.52543 v -8.0915 c 0,0 -0.47758,-1.62928 3.5481,-4.63589 0.1517,-0.1133 0.30964,-0.22852 0.47439,-0.34572 0.12477,-0.0888 0.24587,-0.17893 0.36329,-0.27078 1.34419,-1.05152 2.21358,-2.29548 2.77502,-3.49746 a 10.252604,10.616405 0 0 0 1.12551,-4.83588 10.252604,10.616405 0 0 0 -10.2526,-10.61641 z m 0.0362,6.18825 a 4.5194039,4.6200013 0 0 1 4.51911,4.61987 4.5194039,4.6200013 0 0 1 -4.51911,4.61988 4.5194039,4.6200013 0 0 1 -4.51962,-4.61988 4.5194039,4.6200013 0 0 1 4.51962,-4.61987 z" />
    <ellipse
       style="display:inline;fill:#404040;fill-opacity:1;stroke-width:0.159109"
       id="path9-9-9"
       cx="212.38654"
       cy="166.99878"
       rx="5.9771986"
       ry="6.0055175" />
    <path
       id="path2-2-1-1-7-5"
       style="display:inline;fill:#b84a00;fill-opacity:1;stroke-width:0.0779947;stroke-dasharray:none"
       class="amber-dim "
       d="m 210.99781,160.07363 a 6,6 0 0 0 -1.44436,0.56793 1.5,1.5 0 0 1 0.33693,0.94722 1.5,1.5 0 0 1 -1.49965,1.49966 1.5,1.5 0 0 1 -1.01027,-0.39068 6,6 0 0 0 -0.64441,1.39578 1.5,1.5 0 0 1 1.40147,1.49707 1.5,1.5 0 0 1 -1.49965,1.49965 1.5,1.5 0 0 1 -0.0563,-0.001 6,6 0 0 0 0.62528,1.6986 1.5,1.5 0 0 1 1.08469,-0.46405 1.5,1.5 0 0 1 1.49965,1.50016 1.5,1.5 0 0 1 -0.52865,1.14309 6,6 0 0 0 1.69861,0.73277 1.5,1.5 0 0 1 -0.003,-0.0899 1.5,1.5 0 0 1 1.50017,-1.50017 1.5,1.5 0 0 1 1.49965,1.50017 1.5,1.5 0 0 1 -0.005,0.0816 6,6 0 0 0 1.66088,-0.69918 1.5,1.5 0 0 1 -0.35605,-0.96997 1.5,1.5 0 0 1 1.50017,-1.50017 1.5,1.5 0 0 1 0.92294,0.31781 6,6 0 0 0 0.58601,-1.45365 1.5,1.5 0 0 1 -0.0207,0.002 1.5,1.5 0 0 1 -1.50017,-1.49965 1.5,1.5 0 0 1 1.50017,-1.50017 1.5,1.5 0 0 1 0.0227,0 6,6 0 0 0 -0.59532,-1.46761 1.5,1.5 0 0 1 -0.98185,0.36639 1.5,1.5 0 0 1 -1.50016,-1.49966 1.5,1.5 0 0 1 0.39739,-1.01699 6,6 0 0 0 -1.59991,-0.68213 1.5,1.5 0 0 1 0.002,0.0786 1.5,1.5 0 0 1 -1.49965,1.49965 1.5,1.5 0 0 1 -1.50017,-1.49965 1.5,1.5 0 0 1 0.006,-0.093 z" />
    <path
       id="path2-2-1-1-7-7-533"
       style="display:inline;fill:#ff6a00;fill-opacity:1;stroke-width:0.0779947;stroke-dasharray:none"
       class="amber"
       d="m 216.90119,166.4705 a 1.5,1.5 0 0 0 -0.15916,0.66508 1.5,1.5 0 0 0 1.08159,1.44073 6,6 0 0 0 0.46353,-1.22473 1.5,1.5 0 0 1 -0.0212,0.002 1.5,1.5 0 0 1 -1.36477,-0.88315 z" />
    <path
       id="path2-2-1-1-7-7-53-3"
       style="display:inline;fill:#ff6a00;fill-opacity:1;stroke-width:0.0779947;stroke-dasharray:none"
       class="amber"
       d="m 215.35789,162.4205 a 1.5,1.5 0 0 0 -0.18035,0.70848 1.5,1.5 0 0 0 1.49965,1.50017 1.5,1.5 0 0 0 1.39009,-0.93586 6,6 0 0 0 -0.36483,-0.76068 1.5,1.5 0 0 1 -0.98186,0.36639 1.5,1.5 0 0 1 -1.3627,-0.8785 z" />
    <path
       id="path2-2-1-1-7-7-4-7"
       style="display:inline;fill:#ff6a00;fill-opacity:1;stroke-width:0.0779947;stroke-dasharray:none"
       class="amber"
       d="m 213.86056,160.77059 a 1.5,1.5 0 0 1 -1.35393,0.86248 1.5,1.5 0 0 1 -1.34255,-0.83716 1.5,1.5 0 0 0 -0.14521,0.63717 1.5,1.5 0 0 0 1.49965,1.50017 1.5,1.5 0 0 0 1.50016,-1.50017 1.5,1.5 0 0 0 -0.15812,-0.66249 z" />
    <path
       id="path2-2-1-1-7-7-6-4"
       style="display:inline;fill:#ff6a00;fill-opacity:1;stroke-width:0.0779947;stroke-dasharray:none"
       class="amber"
       d="m 209.74518,162.19841 a 1.5,1.5 0 0 1 -1.34927,0.85215 1.5,1.5 0 0 1 -1.01027,-0.39068 6,6 0 0 0 -0.38499,0.71727 1.5,1.5 0 0 0 1.42265,1.02526 1.5,1.5 0 0 0 1.50017,-1.50016 1.5,1.5 0 0 0 -0.17829,-0.70384 z" />
    <path
       id="path2-2-1-1-7-7-5-3"
       style="display:inline;fill:#ff6a00;fill-opacity:1;stroke-width:0.0779947;stroke-dasharray:none"
       class="amber"
       d="m 207.9657,166.31587 a 1.5,1.5 0 0 1 -1.33119,0.81545 1.5,1.5 0 0 1 -0.0563,-10e-4 6,6 0 0 0 0.41083,1.27072 1.5,1.5 0 0 0 1.12035,-1.45107 1.5,1.5 0 0 0 -0.14366,-0.63407 z" />
    <rect
       style="fill:#454545;fill-opacity:1;stroke-width:0.246206;stroke-dasharray:none"
       id="rect5-4-0-3-6"
       width="12.450493"
       height="12.361753"
       x="188.87326"
       y="155.23212" />
    <path
       id="rect5-2-4-7-0-18"
       style="fill:#b84a00;fill-opacity:1;stroke-width:0.255196;stroke-dasharray:none"
       d="m 201.70075,153.71573 a 6.2139621,1.2104954 0 0 1 -6.20955,1.16382 6.2139621,1.2104954 0 0 1 -6.20329,-1.14 v 13.25668 h 0.006 a 6.2139621,1.2104954 0 0 1 -0.002,-0.0327 6.2139621,1.2104954 0 0 1 6.2141,-1.21022 6.2139621,1.2104954 0 0 1 6.21411,1.21022 6.2139621,1.2104954 0 0 1 -0.002,0.0327 h 0.0205 v -13.2805 z"
       class="amber-dim " />
    <path
       id="rect5-2-49-7-1-9"
       style="fill:#ff6a00;fill-opacity:1;stroke-width:0.255594;stroke-dasharray:none"
       d="m 201.68254,153.7204 a 6.2139621,1.2104954 0 0 1 -6.20955,1.16383 6.2139621,1.2104954 0 0 1 -6.2033,-1.14 v 3.33157 a 6.2139621,1.2104954 0 0 0 6.20102,1.13373 6.2139621,1.2104954 0 0 0 6.20955,-1.16382 h 0.0381 v 9.95522 h 0.002 V 153.7204 Z"
       class="amber" />
    <rect
       style="fill:#454545;fill-opacity:1;stroke-width:0.246206;stroke-dasharray:none"
       id="rect5-4-0-3-6-4"
       width="12.450493"
       height="12.361753"
       x="188.97662"
       y="170.58554" />
    <path
       id="rect5-2-4-7-0-18-3"
       style="fill:#b84a00;fill-opacity:1;stroke-width:0.255196;stroke-dasharray:none"
       d="m 201.80411,169.06916 a 6.2139621,1.2104954 0 0 1 -6.20955,1.16382 6.2139621,1.2104954 0 0 1 -6.20329,-1.14 v 13.25668 h 0.006 a 6.2139621,1.2104954 0 0 1 -0.002,-0.0327 6.2139621,1.2104954 0 0 1 6.2141,-1.21022 6.2139621,1.2104954 0 0 1 6.21411,1.21022 6.2139621,1.2104954 0 0 1 -0.002,0.0327 h 0.0205 v -13.2805 z"
       class="amber-dim " />
    <path
       id="rect5-2-49-7-1-9-1"
       style="fill:#ff6a00;fill-opacity:1;stroke-width:0.255594;stroke-dasharray:none"
       d="m 201.7859,169.07383 a 6.2139621,1.2104954 0 0 1 -6.20955,1.16383 6.2139621,1.2104954 0 0 1 -6.2033,-1.14 v 3.33157 a 6.2139621,1.2104954 0 0 0 6.20102,1.13373 6.2139621,1.2104954 0 0 0 6.20955,-1.16382 h 0.0381 v 9.95522 h 0.002 v -13.28053 z"
       class="amber" />
    <rect
       style="fill:#454545;fill-opacity:1;stroke-width:0.246206;stroke-dasharray:none"
       id="rect5-4-0-3-6-4-6"
       width="12.450493"
       height="12.361753"
       x="119.98674"
       y="153.64758" />
    <path
       id="rect5-2-4-7-0-18-3-3"
       style="fill:#b84a00;fill-opacity:1;stroke-width:0.255196;stroke-dasharray:none"
       d="m 132.81426,152.13118 a 6.2139621,1.2104954 0 0 1 -6.20955,1.16383 6.2139621,1.2104954 0 0 1 -6.20329,-1.14001 v 13.25668 h 0.006 a 6.2139621,1.2104954 0 0 1 -0.002,-0.0327 6.2139621,1.2104954 0 0 1 6.2141,-1.21021 6.2139621,1.2104954 0 0 1 6.21411,1.21021 6.2139621,1.2104954 0 0 1 -0.002,0.0327 h 0.0205 v -13.2805 z"
       class="amber-dim " />
    <path
       id="rect5-2-49-7-1-9-1-7"
       style="fill:#ff6a00;fill-opacity:1;stroke-width:0.255594;stroke-dasharray:none"
       d="m 132.79605,152.13585 a 6.2139621,1.2104954 0 0 1 -6.20955,1.16384 6.2139621,1.2104954 0 0 1 -6.2033,-1.14001 v 3.33158 a 6.2139621,1.2104954 0 0 0 6.20102,1.13373 6.2139621,1.2104954 0 0 0 6.20955,-1.16383 h 0.0381 v 9.95522 h 0.002 v -13.28053 z"
       class="amber" />
    <rect
       style="fill:#454545;fill-opacity:1;stroke-width:0.246206;stroke-dasharray:none"
       id="rect5-4-0-3-6-4-7"
       width="12.450493"
       height="12.361753"
       x="222.6292"
       y="171.00693" />
    <path
       id="rect5-2-4-7-0-18-3-7"
       style="fill:#b84a00;fill-opacity:1;stroke-width:0.255196;stroke-dasharray:none"
       d="m 235.4567,169.49054 a 6.2139621,1.2104954 0 0 1 -6.20955,1.16382 6.2139621,1.2104954 0 0 1 -6.20329,-1.14 v 13.25668 h 0.006 a 6.2139621,1.2104954 0 0 1 -0.002,-0.0327 6.2139621,1.2104954 0 0 1 6.2141,-1.21022 6.2139621,1.2104954 0 0 1 6.21411,1.21022 6.2139621,1.2104954 0 0 1 -0.002,0.0327 h 0.0205 v -13.2805 z"
       class="amber-dim " />
    <path
       id="rect5-2-49-7-1-9-1-9"
       style="fill:#ff6a00;fill-opacity:1;stroke-width:0.255594;stroke-dasharray:none"
       d="m 235.43849,169.49521 a 6.2139621,1.2104954 0 0 1 -6.20955,1.16383 6.2139621,1.2104954 0 0 1 -6.2033,-1.14 v 3.33157 a 6.2139621,1.2104954 0 0 0 6.20102,1.13373 6.2139621,1.2104954 0 0 0 6.20955,-1.16382 h 0.0381 v 9.95522 h 0.002 v -13.28053 z"
       class="amber" />
    <rect
       style="fill:#454545;fill-opacity:1;stroke-width:0.246206;stroke-dasharray:none"
       id="rect5-4-0-3-6-4-7-6"
       width="12.450493"
       height="12.361753"
       x="222.69151"
       y="155.94354" />
    <path
       id="rect5-2-4-7-0-18-3-7-5"
       style="fill:#b84a00;fill-opacity:1;stroke-width:0.255196;stroke-dasharray:none"
       d="m 235.51902,154.42715 a 6.2139621,1.2104954 0 0 1 -6.20955,1.16382 6.2139621,1.2104954 0 0 1 -6.20329,-1.14 v 13.25668 h 0.006 a 6.2139621,1.2104954 0 0 1 -0.002,-0.0327 6.2139621,1.2104954 0 0 1 6.2141,-1.21022 6.2139621,1.2104954 0 0 1 6.21411,1.21022 6.2139621,1.2104954 0 0 1 -0.002,0.0327 h 0.0205 v -13.2805 z"
       class="amber-dim " />
    <path
       id="rect5-2-49-7-1-9-1-9-0"
       style="fill:#ff6a00;fill-opacity:1;stroke-width:0.255594;stroke-dasharray:none"
       d="m 235.50081,154.43182 a 6.2139621,1.2104954 0 0 1 -6.20955,1.16383 6.2139621,1.2104954 0 0 1 -6.2033,-1.14 v 3.33157 a 6.2139621,1.2104954 0 0 0 6.20102,1.13373 6.2139621,1.2104954 0 0 0 6.20955,-1.16382 h 0.0381 v 9.95522 h 0.002 v -13.28053 z"
       class="amber" />
    <rect
       style="display:inline;fill:#ff6a00;fill-opacity:1;stroke-width:0.460663"
       id="rect14-1"
       width="74.928627"
       height="4.0003791"
       x="178.17712"
       y="128.00706"
       class="amber" />
    <rect
       style="display:inline;fill:#ff6a00;fill-opacity:1;stroke-width:0.278753"
       id="rect14-1-6-0"
       width="27.435921"
       height="4.0003791"
       x="83.27372"
       y="138.96991"
       class="amber" />
    <rect
       style="display:inline;fill:#ff6a00;fill-opacity:1;stroke-width:0.18286"
       id="rect14-1-6-0-20"
       width="9.5689526"
       height="4.9358225"
       x="237.57103"
       y="166.60947"
       class="amber" />
    <rect
       style="display:inline;fill:#ff6a00;fill-opacity:1;stroke-width:0.0595922"
       id="rect14-1-6-0-20-2"
       width="4.8683496"
       height="1.0303465"
       x="124.74496"
       y="283.23581"
       class="amber"
       transform="rotate(-29.095248)" />
    <path
       id="rect14-1-6-0-2"
       style="display:inline;fill:#ff6a00;fill-opacity:1;stroke-width:0.301648"
       class="amber"
       d="m 114.03154,146.11366 v 4.86017 h 0.076 v 20.76359 h 0.58549 v 0.006 h 16.45739 l -1.6986,-4.86017 h -10.48415 v -15.90962 h 16.34681 a 20.579754,20.860388 0 0 1 3.53002,-4.86017 z" />
    <rect
       style="display:inline;fill:#ff6a00;fill-opacity:1;stroke-width:0.137386"
       id="rect14-1-4"
       width="1.2421687"
       height="21.462879"
       x="178.25919"
       y="131.95845"
       class="amber" />
    <rect
       style="display:inline;fill:#ff6a00;fill-opacity:1;stroke-width:0.0959689"
       id="rect14-1-4-6"
       width="1.2421687"
       height="10.472824"
       x="110.63268"
       y="132.4915"
       class="amber " />
    <rect
       style="display:inline;fill:#ff6a00;fill-opacity:1;stroke-width:0.198055"
       id="rect14-1-4-6-4"
       width="1.2421687"
       height="44.604073"
       x="83.222946"
       y="140.62355"
       class="amber" />
    <rect
       style="display:inline;fill:#ff6a00;fill-opacity:1;stroke-width:0.172127"
       id="rect14-1-4-6-4-8"
       width="1.2421687"
       height="33.69001"
       x="56.383095"
       y="130.02417"
       class="amber" />
    <rect
       style="display:inline;fill:#ff6a00;fill-opacity:1;stroke-width:0.148349"
       id="rect14-1-4-6-4-8-7"
       width="1.2421687"
       height="25.024906"
       x="69.942993"
       y="139.41689"
       class="amber" />
    <path
       id="path3-7-3"
       style="display:inline;fill:#ff6a00;fill-opacity:1;stroke-width:0.275853;stroke-dasharray:none"
       d="m 99.71666,126.45181 a 17.399246,5.238482 0 0 0 -12.24267,1.51619 12.766146,9.558073 0 0 0 1.02113,1.6185 17.399246,5.238482 0 0 1 1.24954,-0.27078 17.399246,5.238482 0 0 1 9.90585,-0.94568 17.399246,5.238482 0 0 1 10.86704,1.14722 12.766146,9.558073 0 0 0 1.02319,-1.67019 17.399246,5.238482 0 0 0 -11.82408,-1.39526 z m 10.80089,3.06545 a 12.766146,9.558073 0 0 1 -0.0114,0.0145 17.399246,5.238482 0 0 1 0.59169,0.14934 h 0.0672 a 17.399246,5.238482 0 0 0 -0.6475,-0.16381 z"
       class="amber" />
    <path
       id="path15-0"
       style="display:inline;fill:#18161e;fill-opacity:1;stroke-width:0.225475"
       d="m 142.39349,153.30521 a 1,0.63304519 0 0 0 -0.99994,0.63301 1,0.63304519 0 0 0 0.008,0.0779 v 13.96604 a 1,0.63304519 0 0 0 -0.01,0.088 1,0.63304519 0 0 0 0.99994,0.63301 1,0.63304519 0 0 0 0.003,0 l 0.009,0.006 h 22.83789 a 1,0.63304519 0 0 0 0.0532,0.001 1,0.63304519 0 0 0 0.99994,-0.633 1,0.63304519 0 0 0 -0.006,-0.0707 v -14.01228 a 1,0.63304519 0 0 0 0.004,-0.0549 1,0.63304519 0 0 0 -0.99993,-0.63301 1,0.63304519 0 0 0 -0.0739,0.002 l -0.002,-6.3e-4 h -22.74867 a 1,0.63304519 0 0 0 -0.0749,-0.002 z" />
    <path
       id="rect8-6-6"
       style="fill:#00e5ff;fill-opacity:1;stroke-width:0.0827738;stroke-dasharray:none"
       d="m 144.73296,156.07416 -0.66741,0.59019 3.59263,3.14116 -3.69231,3.26448 0.79137,0.69188 4.35939,-3.85466 z"
       class="cyan" />
    <rect
       style="fill:#00e5ff;fill-opacity:1;stroke-width:0.166185;stroke-dasharray:none"
       id="rect9-8"
       width="6.0192709"
       height="1.0616573"
       x="148.47917"
       y="164.62556"
       class="cyan" />
    <path
       id="path22"
       style="fill:#ff6a00;fill-opacity:1;stroke-width:0.24319;stroke-dasharray:none"
       d="m 63.27312,163.15006 a 4.0188384,3.8948152 0 0 0 -0.26562,1.37563 4.0188384,3.8948152 0 0 0 4.01888,3.89485 4.0188384,3.8948152 0 0 0 4.01887,-3.89485 4.0188384,3.8948152 0 0 0 -0.2589,-1.35651 4.0188384,3.8948152 0 0 1 -3.75326,2.51871 4.0188384,3.8948152 0 0 1 -3.75997,-2.53783 z"
       class="amber" />
    <path
       id="rect1-1"
       style="fill:#b84a00;fill-opacity:1;stroke-width:0.339867;stroke-dasharray:none"
       class="amber-dim"
       d="m 121.98543,51.762193 -5.5163,43.267991 V 114.31075 H 268.51072 V 72.487943 h 11.10823 v -20.72575 z" />
    <path
       id="rect1-6"
       style="fill:#ff6a00;fill-opacity:1;stroke-width:0.339867;stroke-dasharray:none"
       class="amber-dim"
       d="m 142.9035,84.205893 v 11.838711 a 30.243373,29.351288 0 0 0 27.84534,17.897276 30.243373,29.351288 0 0 0 16.62768,-4.83425 V 84.205893 Z" />
    <rect
       style="fill:#666666;fill-opacity:1;stroke-width:0.275964;stroke-dasharray:none"
       id="rect2"
       width="93.840134"
       height="42.298313"
       x="177.70377"
       y="72.071693" />
    <ellipse
       style="fill:#666666;fill-opacity:1;stroke-width:0.356313;stroke-dasharray:none"
       id="path2-9"
       cx="170.82065"
       cy="84.812843"
       rx="27.823904"
       ry="27.003185" />
    <ellipse
       style="fill:#e3e3e3;fill-opacity:1;stroke-width:0.309836;stroke-dasharray:none"
       id="path2-2"
       cx="170.66275"
       cy="84.742714"
       rx="24.194698"
       ry="23.481031" />
    <ellipse
       style="fill:#e3e3e3;fill-opacity:1;stroke-width:0.116188;stroke-dasharray:none"
       id="path2-2-1"
       cx="232.09645"
       cy="91.256813"
       rx="9.0730124"
       ry="8.8053865" />
    <ellipse
       style="fill:#313131;fill-opacity:1;stroke-width:0.092951;stroke-dasharray:none"
       id="path2-2-1-1"
       cx="232.17436"
       cy="91.252068"
       class="amber-dim"
       rx="7.2584095"
       ry="7.0443091" />
    <path
       id="path2-2-1-1-7-53"
       style="fill:#b84a00;fill-opacity:1;stroke-width:0.092951;stroke-dasharray:none"
       class="amber-dim"
       d="m 230.39276,84.411583 a 7.2584095,7.0443092 0 0 0 -1.74729,0.66678 1.8146023,1.7610773 0 0 1 0.4076,1.11209 1.8146023,1.7610773 0 0 1 -1.81419,1.76068 1.8146023,1.7610773 0 0 1 -1.22215,-0.45867 7.2584095,7.0443092 0 0 0 -0.77956,1.63871 1.8146023,1.7610773 0 0 1 1.6954,1.75764 1.8146023,1.7610773 0 0 1 -1.81418,1.76066 1.8146023,1.7610773 0 0 1 -0.0681,-0.001 7.2584095,7.0443092 0 0 0 0.75641,1.994241 1.8146023,1.7610773 0 0 1 1.31219,-0.54482 1.8146023,1.7610773 0 0 1 1.81419,1.76127 1.8146023,1.7610773 0 0 1 -0.63954,1.34204 7.2584095,7.0443092 0 0 0 2.05488,0.86031 1.8146023,1.7610773 0 0 1 -0.003,-0.10558 1.8146023,1.7610773 0 0 1 1.8148,-1.76128 1.8146023,1.7610773 0 0 1 1.81418,1.76128 1.8146023,1.7610773 0 0 1 -0.006,0.0958 7.2584095,7.0443092 0 0 0 2.00923,-0.82087 1.8146023,1.7610773 0 0 1 -0.43073,-1.1388 1.8146023,1.7610773 0 0 1 1.81481,-1.76128 1.8146023,1.7610773 0 0 1 1.11651,0.37313 7.2584095,7.0443092 0 0 0 0.70892,-1.706661 1.8146023,1.7610773 0 0 1 -0.025,0.002 1.8146023,1.7610773 0 0 1 -1.8148,-1.76067 1.8146023,1.7610773 0 0 1 1.8148,-1.76127 1.8146023,1.7610773 0 0 1 0.0275,0 7.2584095,7.0443092 0 0 0 -0.72019,-1.72305 1.8146023,1.7610773 0 0 1 -1.18778,0.43015 1.8146023,1.7610773 0 0 1 -1.81479,-1.76067 1.8146023,1.7610773 0 0 1 0.48073,-1.19401 7.2584095,7.0443092 0 0 0 -1.93546,-0.80085 1.8146023,1.7610773 0 0 1 0.002,0.0922 1.8146023,1.7610773 0 0 1 -1.81418,1.76068 1.8146023,1.7610773 0 0 1 -1.81481,-1.76068 1.8146023,1.7610773 0 0 1 0.008,-0.10922 z" />
    <path
       id="path2-2-1-1-7-7-2"
       style="fill:#ff6a00;fill-opacity:1;stroke-width:0.092951;stroke-dasharray:none"
       class="amber-dim  amber"
       d="m 237.53429,91.921843 a 1.8146023,1.7610773 0 0 0 -0.19254,0.78084 1.8146023,1.7610773 0 0 0 1.30844,1.691491 7.2584095,7.0443092 0 0 0 0.56074,-1.437891 1.8146023,1.7610773 0 0 1 -0.0257,0.002 1.8146023,1.7610773 0 0 1 -1.65102,-1.03687 z" />
    <path
       id="path2-2-1-1-7-7-53-5"
       style="fill:#ff6a00;fill-opacity:1;stroke-width:0.092951;stroke-dasharray:none"
       class="amber-dim  amber"
       d="m 235.66731,87.166943 a 1.8146023,1.7610773 0 0 0 -0.21818,0.83179 1.8146023,1.7610773 0 0 0 1.81418,1.76127 1.8146023,1.7610773 0 0 0 1.68164,-1.09875 7.2584095,7.0443092 0 0 0 -0.44135,-0.89308 1.8146023,1.7610773 0 0 1 -1.18779,0.43017 1.8146023,1.7610773 0 0 1 -1.6485,-1.0314 z" />
    <path
       id="path2-2-1-1-7-7-4-2"
       style="fill:#ff6a00;fill-opacity:1;stroke-width:0.092951;stroke-dasharray:none"
       class="amber-dim  amber"
       d="m 233.85593,85.229863 a 1.8146023,1.7610773 0 0 1 -1.6379,1.01259 1.8146023,1.7610773 0 0 1 -1.62413,-0.98287 1.8146023,1.7610773 0 0 0 -0.17566,0.74807 1.8146023,1.7610773 0 0 0 1.81418,1.76128 1.8146023,1.7610773 0 0 0 1.8148,-1.76128 1.8146023,1.7610773 0 0 0 -0.19129,-0.77779 z" />
    <path
       id="path2-2-1-1-7-7-6-5"
       style="fill:#ff6a00;fill-opacity:1;stroke-width:0.092951;stroke-dasharray:none"
       class="amber-dim  amber"
       d="m 228.87742,86.906183 a 1.8146023,1.7610773 0 0 1 -1.63227,1.00048 1.8146023,1.7610773 0 0 1 -1.22216,-0.45868 7.2584095,7.0443092 0 0 0 -0.46573,0.84211 1.8146023,1.7610773 0 0 0 1.72103,1.2037 1.8146023,1.7610773 0 0 0 1.8148,-1.76126 1.8146023,1.7610773 0 0 0 -0.21567,-0.82635 z" />
    <path
       id="path2-2-1-1-7-7-5-8"
       style="fill:#ff6a00;fill-opacity:1;stroke-width:0.092951;stroke-dasharray:none"
       class="amber-dim  amber"
       d="m 226.72472,91.740293 a 1.8146023,1.7610773 0 0 1 -1.61039,0.95738 1.8146023,1.7610773 0 0 1 -0.0681,-10e-4 7.2584095,7.0443092 0 0 0 0.49698,1.491891 1.8146023,1.7610773 0 0 0 1.35533,-1.703621 1.8146023,1.7610773 0 0 0 -0.17379,-0.74444 z" />
    <ellipse
       style="fill:#494949;fill-opacity:1;stroke-width:0.232378;stroke-dasharray:none"
       id="path2-2-2"
       cx="170.85864"
       cy="84.678444"
       rx="18.146025"
       ry="17.610773" />
    <path
       id="path2-2-2-6"
       style="fill:#000000;fill-opacity:1;stroke-width:0.150662;stroke-dasharray:none"
       d="m 162.07671,77.416423 a 18.146023,7.402837 0 0 0 -7.34548,2.94158 v 7.19019 a 18.146023,7.402837 0 0 0 8.27696,3.12978 h 15.17109 a 18.146023,7.402837 0 0 0 8.32633,-3.166 v -7.11776 a 18.146023,7.402837 0 0 0 -7.39424,-2.97779 z" />
    <rect
       style="fill:#454545;fill-opacity:1;stroke-width:0.236568;stroke-dasharray:none"
       id="rect4"
       width="10.02403"
       height="13.646594"
       x="134.84901"
       y="38.170547" />
    <rect
       style="fill:#454545;fill-opacity:1;stroke-width:0.693443;stroke-dasharray:none"
       id="rect4-9-6"
       width="9.750289"
       height="120.5479"
       x="67.690361"
       y="-240.79446"
       transform="matrix(0.26116357,0.96529456,-0.97422609,0.22557376,0,0)" />
    <ellipse
       style="fill:#454545;fill-opacity:1;stroke-width:0.34549;stroke-dasharray:none"
       id="path4-7"
       cx="253.22826"
       cy="15.824126"
       rx="5.0105243"
       ry="4.8034286" />
    <ellipse
       style="fill:#595959;fill-opacity:1;stroke-width:0.354315;stroke-dasharray:none"
       id="path4-0-7"
       cx="253.39684"
       cy="15.706573"
       rx="5.1519794"
       ry="4.9132543" />
    <path
       id="path4-0-8-2"
       style="fill:#454545;fill-opacity:1;stroke-width:0.354315;stroke-dasharray:none"
       d="m 249.89943,13.997053 a 5.1519793,4.9132544 0 0 0 -5.15184,4.91312 5.1519793,4.9132544 0 0 0 1.52973,3.49403 l 8.56516,-2.10771 a 5.1519793,4.9132544 0 0 0 0.2088,-1.38632 5.1519793,4.9132544 0 0 0 -5.15185,-4.91312 z" />
    <rect
       style="fill:#454545;fill-opacity:1;stroke-width:0.253705;stroke-dasharray:none"
       id="rect5"
       width="13.663924"
       height="11.960527"
       x="201.7327"
       y="76.866669" />
    <path
       id="rect5-2"
       style="fill:#b84a00;fill-opacity:1;stroke-width:0.262969;stroke-dasharray:none"
       d="m 216.67392,77.187853 a 6.8195775,1.1712062 0 0 1 -6.81474,1.12604 6.8195775,1.1712062 0 0 1 -6.80785,-1.10299 v 12.8264 h 0.007 a 6.8195775,1.1712062 0 0 1 -0.002,-0.0315 6.8195775,1.1712062 0 0 1 6.81973,-1.17094 6.8195775,1.1712062 0 0 1 6.81974,1.17094 6.8195775,1.1712062 0 0 1 -0.002,0.0315 h 0.0225 v -12.84945 z"
       class="amber-dim" />
    <rect
       style="fill:#454545;fill-opacity:1;stroke-width:0.253705;stroke-dasharray:none"
       id="rect5-6"
       width="13.663924"
       height="11.960527"
       x="201.70148"
       y="91.998024" />
    <path
       id="rect5-2-1"
       style="fill:#b84a00;fill-opacity:1;stroke-width:0.262969;stroke-dasharray:none"
       d="m 216.6427,92.319173 a 6.8195775,1.1712062 0 0 1 -6.81475,1.12605 6.8195775,1.1712062 0 0 1 -6.80784,-1.103 v 12.826417 h 0.008 a 6.8195775,1.1712062 0 0 1 -0.002,-0.0316 6.8195775,1.1712062 0 0 1 6.81973,-1.17094 6.8195775,1.1712062 0 0 1 6.81975,1.17094 6.8195775,1.1712062 0 0 1 -0.002,0.0316 h 0.0225 V 92.319173 Z"
       class="amber-dim" />
    <rect
       style="fill:#454545;fill-opacity:1;stroke-width:0.253705;stroke-dasharray:none"
       id="rect5-4"
       width="13.663924"
       height="11.960527"
       x="247.31694"
       y="77.048889" />
    <path
       id="rect5-2-4"
       style="fill:#b84a00;fill-opacity:1;stroke-width:0.262969;stroke-dasharray:none"
       d="m 262.25822,77.370053 a 6.8195775,1.1712062 0 0 1 -6.81473,1.12604 6.8195775,1.1712062 0 0 1 -6.80786,-1.10299 v 12.8264 h 0.008 a 6.8195775,1.1712062 0 0 1 -0.002,-0.0316 6.8195775,1.1712062 0 0 1 6.81974,-1.17095 6.8195775,1.1712062 0 0 1 6.81974,1.17095 6.8195775,1.1712062 0 0 1 -0.002,0.0316 h 0.0226 v -12.84945 z"
       class="amber-dim" />
    <rect
       style="fill:#454545;fill-opacity:1;stroke-width:0.253705;stroke-dasharray:none"
       id="rect5-6-6"
       width="13.663924"
       height="11.960527"
       x="247.28575"
       y="92.180214" />
    <path
       id="rect5-2-1-0"
       style="fill:#b84a00;fill-opacity:1;stroke-width:0.262969;stroke-dasharray:none"
       d="m 262.227,92.501373 a 6.8195775,1.1712062 0 0 1 -6.81474,1.126051 6.8195775,1.1712062 0 0 1 -6.80786,-1.103001 v 12.826417 h 0.008 a 6.8195775,1.1712062 0 0 1 -0.002,-0.0316 6.8195775,1.1712062 0 0 1 6.81973,-1.17094 6.8195775,1.1712062 0 0 1 6.81974,1.17094 6.8195775,1.1712062 0 0 1 -0.002,0.0316 h 0.0225 V 92.501373 Z"
       class="amber-dim" />
    <path
       id="rect6"
       style="fill:#ff6a00;stroke-width:0.327988;stroke-dasharray:none"
       d="m 121.95232,51.775203 157.62539,-0.0419 v 3.24978 l -158.01487,0.1258 z"
       sodipodi:nodetypes="ccccc"
       class="amber " />
    <path
       id="rect5-2-49"
       style="fill:#ff6a00;fill-opacity:1;stroke-width:0.263379;stroke-dasharray:none"
       d="m 262.23824,77.374573 a 6.8195775,1.1712062 0 0 1 -6.81474,1.12605 6.8195775,1.1712062 0 0 1 -6.80787,-1.10299 v 3.22343 a 6.8195775,1.1712062 0 0 0 6.80537,1.09694 6.8195775,1.1712062 0 0 0 6.81473,-1.12605 h 0.0419 v 9.6321 h 0.002 v -12.84948 z"
       class="amber" />
    <path
       id="rect5-2-49-5"
       style="fill:#ff6a00;fill-opacity:1;stroke-width:0.263379;stroke-dasharray:none"
       d="m 262.24611,92.506273 a 6.8195775,1.1712062 0 0 1 -6.81473,1.126061 6.8195775,1.1712062 0 0 1 -6.80787,-1.103001 v 3.223451 a 6.8195775,1.1712062 0 0 0 6.80535,1.09692 6.8195775,1.1712062 0 0 0 6.81475,-1.12604 h 0.0419 v 9.632096 h 0.002 V 92.506273 Z"
       class="amber" />
    <path
       id="rect5-2-49-5-7"
       style="fill:#ff6a00;fill-opacity:1;stroke-width:0.263379;stroke-dasharray:none"
       d="m 216.70934,77.194233 a 6.8195775,1.1712062 0 0 1 -6.81473,1.12605 6.8195775,1.1712062 0 0 1 -6.80787,-1.103 v 3.22344 a 6.8195775,1.1712062 0 0 0 6.80536,1.09693 6.8195775,1.1712062 0 0 0 6.81474,-1.12605 h 0.0419 v 9.6321 h 0.002 v -12.84947 z"
       class="amber" />
    <path
       id="rect5-2-49-5-7-5"
       style="fill:#ff6a00;fill-opacity:1;stroke-width:0.263379;stroke-dasharray:none"
       d="m 216.60866,92.330173 a 6.8195775,1.1712062 0 0 1 -6.81475,1.12606 6.8195775,1.1712062 0 0 1 -6.80786,-1.103 v 3.223451 a 6.8195775,1.1712062 0 0 0 6.80536,1.09692 6.8195775,1.1712062 0 0 0 6.81474,-1.12604 h 0.0419 v 9.632096 h 0.002 V 92.330173 Z"
       class="amber" />
    <rect
       style="fill:#595959;fill-opacity:1;stroke-width:0.263391;stroke-dasharray:none"
       id="rect7-2"
       width="120.6343"
       height="2.333729"
       x="121.75974"
       y="68.26757"
       transform="matrix(0.97353125,-0.22855393,0.24185573,0.97031222,0,0)" />
    <path
       id="rect8-9"
       style="fill:#00e5ff;fill-opacity:1;stroke-width:0.0825919;stroke-dasharray:none"
       d="m 159.90949,80.331353 -0.70558,0.55581 3.79807,2.95822 -3.90345,3.07435 0.83663,0.65158 4.60868,-3.63016 z"
       class="cyan" />
    <rect
       style="fill:#00e5ff;fill-opacity:1;stroke-width:0.198053;stroke-dasharray:none"
       id="rect9-4"
       width="7.2817221"
       height="1.2464403"
       x="164.84418"
       y="86.370941"
       class="cyan" />
    <rect
       style="fill:#595959;fill-opacity:1;stroke-width:0.499777"
       id="rect8-5-1"
       width="93.88015"
       height="3.9400947"
       x="177.62866"
       y="110.42715" />
  </g>
</svg>
