<?xml version="1.0" encoding="UTF-8" standalone="no"?>
<!-- Created with Inkscape (http://www.inkscape.org/) -->

<svg
   width="250mm"
   height="250mm"
   viewBox="0 0 250 250"
   version="1.1"
   id="svg1"
   inkscape:version="1.4.2 (f4327f4, 2025-05-13)"
   sodipodi:docname="logo-new-big.svg"
   xmlns:inkscape="http://www.inkscape.org/namespaces/inkscape"
   xmlns:sodipodi="http://sodipodi.sourceforge.net/DTD/sodipodi-0.dtd"
   xmlns="http://www.w3.org/2000/svg"
   xmlns:svg="http://www.w3.org/2000/svg">
  <style
     id="style5">.amber-dim {  }
</style>
  <sodipodi:namedview
     id="namedview1"
     pagecolor="#ffffff"
     bordercolor="#000000"
     borderopacity="0.25"
     inkscape:showpageshadow="2"
     inkscape:pageopacity="0.0"
     inkscape:pagecheckerboard="0"
     inkscape:deskcolor="#d1d1d1"
     inkscape:document-units="mm"
     inkscape:zoom="0.70710678"
     inkscape:cx="481.53972"
     inkscape:cy="391.03005"
     inkscape:window-width="1920"
     inkscape:window-height="974"
     inkscape:window-x="-11"
     inkscape:window-y="-11"
     inkscape:window-maximized="1"
     inkscape:current-layer="layer1" />
  <defs
     id="defs1" />
  <g
     inkscape:label="Layer 1"
     inkscape:groupmode="layer"
     id="layer1">
    <path
       id="rect1"
       style="fill:#b84a00;stroke-width:0.245668;fill-opacity:1"
       d="m 94.502759,35.298621 -14.432194,4.951635 27.425715,79.933624 15.09469,-5.35574 25.56381,-74.50812 -14.43219,-4.951637 -19.59777,57.118993 z"
       class="amber-dim" />
    <rect
       style="fill:#b84a00;stroke-width:0.245668;fill-opacity:1"
       id="rect1-14"
       width="15.258268"
       height="84.564079"
       x="62.646805"
       y="45.499313"
       transform="rotate(-18.93741)"
       class="amber-dim" />
    <rect
       style="fill:#b84a00;stroke-width:0.164465;fill-opacity:1"
       id="rect1-14-3"
       width="15.2582"
       height="37.900051"
       x="-33.553085"
       y="50.41349"
       transform="matrix(-0.00151379,-0.99999885,0.9999716,-0.00753641,0,0)"
       class="amber-dim" />
    <path
       id="rect1-1"
       style="fill:#b84a00;stroke-width:0.245668;fill-opacity:1"
       d="m 146.61586,35.484655 -14.4322,4.952153 25.24187,73.569662 17.62373,1e-5 25.21861,-73.499908 -14.4327,-4.951635 -19.59777,57.118477 z"
       class="amber-dim" />
    <path
       id="rect1-0-2-9"
       style="fill:#b84a00;stroke-width:0.245668;fill-opacity:1"
       d="m 192.16967,17.187066 -13.18989,38.353214 15.44194,1.583365 5.66219,-16.501835 z"
       class="amber-dim" />
    <path
       id="rect1-8"
       style="fill:#b84a00;stroke-width:0.245668;fill-opacity:1"
       d="m 125.45074,126.33389 -14.39809,5.05241 26.45782,77.11312 14.43271,-4.95215 z"
       class="amber-dim" />
    <path
       id="rect1-0-5"
       style="fill:#b84a00;stroke-width:0.245668;fill-opacity:1"
       d="m 162.98385,125.77113 -26.70948,77.8459 14.43271,4.95215 19.43809,-56.6539 19.4784,56.77017 14.43219,-4.95163 -26.74927,-77.96269 -6.59495,0 -0.37672,0.1292 -0.37672,-0.1292 z"
       class="amber-dim" />
    <path
       id="rect1-0-2-7"
       style="fill:#b84a00;stroke-width:0.245668;fill-opacity:1"
       d="m 206.34916,151.4538 -17.96169,52.34978 14.43219,4.95163 17.98857,-52.42728 a 27.000252,26.999784 90 0 1 -14.45907,-4.87413 z"
       class="amber-dim" />
    <path
       style="fill:#b84a00;stroke-width:0.221;fill-opacity:1"
       d="m 131.05096,189.629 13.18976,38.35318 13.89003,-41.13057 z"
       id="path1"
       sodipodi:nodetypes="cccc"
       class="amber-dim" />
    <path
       style="fill:#b84a00;stroke-width:0.221;fill-opacity:1"
       d="m 127.03692,54.801109 13.18976,-38.35318 13.89003,41.13057 z"
       id="path1-3"
       sodipodi:nodetypes="cccc"
       class="amber-dim" />
    <path
       style="fill:#b84a00;stroke-width:0.221;fill-opacity:1"
       d="m 183.42525,190.56452 13.09054,38.43586 13.46519,-41.20628 z"
       id="path1-0"
       sodipodi:nodetypes="cccc"
       class="amber-dim" />
    <path
       id="path36-4-2"
       style="fill:#b84a00;fill-opacity:1;stroke:none;stroke-width:26.1775;stroke-dasharray:none;stroke-opacity:1"
       d="m 73.477159,50.620585 c -0.106941,0.03846 -0.213833,0.07684 -0.320644,0.116279 l 6.1e-5,8.19e-4 6e-5,8.04e-4 c -2.692182,0.994168 -5.225313,2.257277 -7.317072,3.649211 l -0.0414,0.03233 1.063903,18.944337 0.228789,4.680341 A 61.253315,62.257411 68.365684 0 0 54.645487,88.959917 L 29.917984,85.123766 c -1.824698,2.09705 -3.575832,4.8572 -4.997169,7.874865 l 5.9e-5,8.02e-4 c -1.229749,2.611 -2.159318,5.303719 -2.686424,7.779027 l -0.0074,0.053 13.857678,12.91153 4.364305,4.12531 a 61.253315,62.257411 68.365684 0 0 -0.98024,15.75787 l -20.360722,14.91758 c 0.169663,2.79483 0.853401,6.01307 1.949519,9.18147 l 7.97e-4,-5e-5 c 0.948357,2.74142 2.165427,5.32929 3.516367,7.47564 l 0.03076,0.0429 18.793266,-0.57107 7.111709,-0.16405 a 61.253315,62.257411 68.365684 0 0 10.596805,11.42715 l -2.662981,24.73445 c 2.158947,1.77228 4.971731,3.44947 8.024708,4.78575 2.641536,1.15618 5.350491,2.00815 7.826257,2.46038 l 0.05234,0.006 12.170608,-14.37865 0.0024,-0.002 3.643123,-4.24077 a 61.253315,62.257411 68.365684 0 0 14.538111,0.77631 l 14.37693,20.81849 c 2.77278,-0.0921 5.97282,-0.68975 9.1303,-1.7055 l -5e-5,-8.2e-4 c 0.063,-0.0203 0.1256,-0.0407 0.18846,-0.0613 l -12.9903,-37.49148 A 45.281309,46.308676 68.748171 0 1 58.48733,144.44426 45.281309,46.308676 68.748171 0 1 85.770781,86.102002 L 73.477965,50.620528 Z"
       class="amber-dim" />
    <path
       id="path3"
       style="fill:#b84a00;fill-opacity:1;stroke-width:0.210943"
       d="M 43.351359,15.950448 A 15,15 0 0 0 28.351241,30.950049 15,15 0 0 0 43.351359,45.950167 15,15 0 0 0 58.351477,30.950049 15,15 0 0 0 43.351359,15.950448 Z m 0.06615,7.841899 a 7,7 0 0 1 7.000089,7.000089 7,7 0 0 1 -7.000089,7.00009 7,7 0 0 1 -7.00009,-7.00009 7,7 0 0 1 7.00009,-7.000089 z"
       class="amber-dim" />
    <path
       id="path3-7"
       style="fill:#b84a00;fill-opacity:1;stroke-width:0.210943"
       d="m 220.70036,118.09106 a 15,15 0 0 0 -15.00012,14.9996 15,15 0 0 0 15.00012,15.00012 15,15 0 0 0 15.00012,-15.00012 15,15 0 0 0 -15.00012,-14.9996 z m 0.0661,7.8419 a 7,7 0 0 1 7.00009,7.00009 7,7 0 0 1 -7.00009,7.00009 7,7 0 0 1 -7.00009,-7.00009 7,7 0 0 1 7.00009,-7.00009 z"
       class="amber-dim" />
    <path
       style="fill:#b84a00;fill-opacity:1;stroke-width:0.221"
       d="M 48.484895,43.259375 80.764061,32.014583 56.223957,28.773438 Z"
       id="path4"
       class="amber-dim" />
  </g>
</svg>
